<svg width="118" height="40" viewBox="0 0 118 40" fill="none" xmlns="http://www.w3.org/2000/svg">
<rect width="118" height="40" fill="#C3002F"/>
<path d="M20.0001 9.5L10.2246 12.986L11.7156 25.9115L20.0001 30.5L28.2846 25.9115L29.7756 12.986L20.0001 9.5Z" fill="white"/>
<path d="M20.0001 9.5L20.0001 11.831V11.8205L20.0001 30.5L28.2846 25.9115L29.7756 12.986L20.0001 9.5Z" fill="white"/>
<path d="M19.9997 11.8206L13.8887 25.5231H16.1672L17.3957 22.4571H22.5827L23.8112 25.5231H26.0897L19.9997 11.8206ZM21.7847 20.5671H18.2147L19.9997 16.2726L21.7847 20.5671Z" fill="#C3002F"/>
<path d="M50.704 23.6H45.504L44.512 26H41.856L46.848 14.8H49.408L54.416 26H51.696L50.704 23.6ZM49.888 21.632L48.112 17.344L46.336 21.632H49.888ZM60.634 17.264C61.7007 17.264 62.5593 17.584 63.21 18.224C63.8713 18.864 64.202 19.8133 64.202 21.072V26H61.706V21.456C61.706 20.7733 61.5567 20.2667 61.258 19.936C60.9593 19.5947 60.5273 19.424 59.962 19.424C59.3327 19.424 58.8313 19.6213 58.458 20.016C58.0847 20.4 57.898 20.976 57.898 21.744V26H55.402V17.392H57.786V18.4C58.1167 18.0373 58.5273 17.76 59.018 17.568C59.5087 17.3653 60.0473 17.264 60.634 17.264ZM75.4383 17.392V24.56C75.4383 26.1387 75.0276 27.312 74.2063 28.08C73.3849 28.848 72.1849 29.232 70.6063 29.232C69.7743 29.232 68.9849 29.1307 68.2383 28.928C67.4916 28.7253 66.8729 28.432 66.3823 28.048L67.3743 26.256C67.7369 26.5547 68.1956 26.7893 68.7503 26.96C69.3049 27.1413 69.8596 27.232 70.4143 27.232C71.2783 27.232 71.9129 27.0347 72.3183 26.64C72.7343 26.256 72.9423 25.6693 72.9423 24.88V24.512C72.2916 25.2267 71.3849 25.584 70.2223 25.584C69.4329 25.584 68.7076 25.4133 68.0463 25.072C67.3956 24.72 66.8783 24.2293 66.4943 23.6C66.1103 22.9707 65.9183 22.2453 65.9183 21.424C65.9183 20.6027 66.1103 19.8773 66.4943 19.248C66.8783 18.6187 67.3956 18.1333 68.0463 17.792C68.7076 17.44 69.4329 17.264 70.2223 17.264C71.4703 17.264 72.4196 17.6747 73.0703 18.496V17.392H75.4383ZM70.7183 23.536C71.3796 23.536 71.9183 23.344 72.3343 22.96C72.7609 22.5653 72.9743 22.0533 72.9743 21.424C72.9743 20.7947 72.7609 20.288 72.3343 19.904C71.9183 19.5093 71.3796 19.312 70.7183 19.312C70.0569 19.312 69.5129 19.5093 69.0863 19.904C68.6596 20.288 68.4463 20.7947 68.4463 21.424C68.4463 22.0533 68.6596 22.5653 69.0863 22.96C69.5129 23.344 70.0569 23.536 70.7183 23.536ZM86.4334 17.392V26H84.0654V24.976C83.7347 25.3493 83.34 25.6373 82.8814 25.84C82.4227 26.032 81.9267 26.128 81.3934 26.128C80.2627 26.128 79.3667 25.8027 78.7054 25.152C78.044 24.5013 77.7134 23.536 77.7134 22.256V17.392H80.2094V21.888C80.2094 23.2747 80.7907 23.968 81.9534 23.968C82.5507 23.968 83.0307 23.776 83.3934 23.392C83.756 22.9973 83.9374 22.416 83.9374 21.648V17.392H86.4334ZM88.7458 14.128H91.2418V26H88.7458V14.128ZM97.0303 17.264C98.3636 17.264 99.3876 17.584 100.102 18.224C100.817 18.8533 101.174 19.808 101.174 21.088V26H98.8383V24.928C98.3689 25.728 97.4943 26.128 96.2143 26.128C95.5529 26.128 94.9769 26.016 94.4863 25.792C94.0063 25.568 93.6383 25.2587 93.3823 24.864C93.1263 24.4693 92.9983 24.0213 92.9983 23.52C92.9983 22.72 93.2969 22.0907 93.8943 21.632C94.5023 21.1733 95.4356 20.944 96.6943 20.944H98.6783C98.6783 20.4 98.5129 19.984 98.1823 19.696C97.8516 19.3973 97.3556 19.248 96.6943 19.248C96.2356 19.248 95.7823 19.3227 95.3343 19.472C94.8969 19.6107 94.5236 19.8027 94.2143 20.048L93.3183 18.304C93.7876 17.9733 94.3476 17.7173 94.9983 17.536C95.6596 17.3547 96.3369 17.264 97.0303 17.264ZM96.8383 24.448C97.2649 24.448 97.6436 24.352 97.9743 24.16C98.3049 23.9573 98.5396 23.664 98.6783 23.28V22.4H96.9663C95.9423 22.4 95.4303 22.736 95.4303 23.408C95.4303 23.728 95.5529 23.984 95.7983 24.176C96.0543 24.3573 96.4009 24.448 96.8383 24.448ZM105.817 18.528C106.116 18.112 106.516 17.7973 107.017 17.584C107.529 17.3707 108.116 17.264 108.777 17.264V19.568C108.5 19.5467 108.313 19.536 108.217 19.536C107.503 19.536 106.943 19.7387 106.537 20.144C106.132 20.5387 105.929 21.136 105.929 21.936V26H103.433V17.392H105.817V18.528Z" fill="white"/>
</svg>
