<svg width="134" height="40" viewBox="0 0 134 40" fill="none" xmlns="http://www.w3.org/2000/svg">
<rect width="134" height="40" fill="#7B11F9"/>
<rect x="8" y="8" width="24" height="24" fill="#7B11F9"/>
<path d="M21.8476 20.8325C21.4121 20.6767 20.7852 20.7101 19.9669 20.7101H16.6792V25.3768H20.1951C20.7444 25.3768 21.1302 25.3129 21.3524 25.2683C21.744 25.192 22.0715 25.0443 22.3346 24.8661C22.5974 24.6884 22.8137 24.4187 22.9835 24.0787C23.1529 23.7386 23.2378 23.3407 23.2378 22.8958C23.2378 22.3747 23.115 21.9746 22.8693 21.5899C22.6237 21.2052 22.2832 20.9883 21.8476 20.8325ZM21.3963 18.6988C21.8286 18.5592 22.1545 18.3153 22.3737 17.9913C22.5931 17.6671 22.7027 17.2546 22.7027 16.765C22.7027 16.3012 22.6002 15.8897 22.3956 15.5366C22.1909 15.1836 21.8989 15.047 21.5188 14.9166C21.1388 14.7865 20.4871 14.8261 19.5635 14.8261H16.6792V18.8841H19.774C20.5281 18.8841 21.0686 18.807 21.3963 18.6988ZM24.6186 24.7164C24.3645 25.279 24.0501 25.7128 23.676 26.018C23.3018 26.3231 22.8325 26.582 22.2685 26.7379C21.7047 26.8939 21.0132 27 20.1951 27H15V13H20.116C21.0981 13 21.8856 13.1236 22.479 13.4062C23.0725 13.6892 23.537 14.1157 23.8734 14.7037C24.2095 15.2917 24.3776 15.9023 24.3776 16.5442C24.3776 17.1418 24.2283 17.7024 23.9303 18.2299C23.6322 18.7579 23.182 19.1823 22.5801 19.5066C23.3574 19.7545 23.9552 20.1769 24.3731 20.7743C24.791 21.3718 25 22.0773 25 22.8909C25 23.5457 24.8729 24.1539 24.6186 24.7164Z" fill="white"/>
<rect x="8.5" y="8.5" width="23" height="23" stroke="white"/>
<path d="M51.552 20.176C52.192 20.3787 52.6933 20.72 53.056 21.2C53.4187 21.6693 53.6 22.2507 53.6 22.944C53.6 23.9253 53.216 24.6827 52.448 25.216C51.6907 25.7387 50.5813 26 49.12 26H43.328V14.8H48.8C50.1653 14.8 51.2107 15.0613 51.936 15.584C52.672 16.1067 53.04 16.816 53.04 17.712C53.04 18.256 52.9067 18.7413 52.64 19.168C52.384 19.5947 52.0213 19.9307 51.552 20.176ZM45.904 16.752V19.392H48.48C49.12 19.392 49.6053 19.28 49.936 19.056C50.2667 18.832 50.432 18.5013 50.432 18.064C50.432 17.6267 50.2667 17.3013 49.936 17.088C49.6053 16.864 49.12 16.752 48.48 16.752H45.904ZM48.928 24.048C49.6107 24.048 50.1227 23.936 50.464 23.712C50.816 23.488 50.992 23.1413 50.992 22.672C50.992 21.744 50.304 21.28 48.928 21.28H45.904V24.048H48.928ZM59.4824 26.128C58.5757 26.128 57.7597 25.9413 57.0344 25.568C56.3197 25.184 55.7597 24.656 55.3544 23.984C54.949 23.312 54.7464 22.5493 54.7464 21.696C54.7464 20.8427 54.949 20.08 55.3544 19.408C55.7597 18.736 56.3197 18.2133 57.0344 17.84C57.7597 17.456 58.5757 17.264 59.4824 17.264C60.389 17.264 61.1997 17.456 61.9144 17.84C62.629 18.2133 63.189 18.736 63.5944 19.408C63.9997 20.08 64.2024 20.8427 64.2024 21.696C64.2024 22.5493 63.9997 23.312 63.5944 23.984C63.189 24.656 62.629 25.184 61.9144 25.568C61.1997 25.9413 60.389 26.128 59.4824 26.128ZM59.4824 24.08C60.1224 24.08 60.645 23.8667 61.0504 23.44C61.4664 23.0027 61.6744 22.4213 61.6744 21.696C61.6744 20.9707 61.4664 20.3947 61.0504 19.968C60.645 19.5307 60.1224 19.312 59.4824 19.312C58.8424 19.312 58.3144 19.5307 57.8984 19.968C57.4824 20.3947 57.2744 20.9707 57.2744 21.696C57.2744 22.4213 57.4824 23.0027 57.8984 23.44C58.3144 23.8667 58.8424 24.08 59.4824 24.08ZM69.9668 26.128C69.0601 26.128 68.2441 25.9413 67.5188 25.568C66.8041 25.184 66.2441 24.656 65.8388 23.984C65.4334 23.312 65.2308 22.5493 65.2308 21.696C65.2308 20.8427 65.4334 20.08 65.8388 19.408C66.2441 18.736 66.8041 18.2133 67.5188 17.84C68.2441 17.456 69.0601 17.264 69.9668 17.264C70.8734 17.264 71.6841 17.456 72.3988 17.84C73.1134 18.2133 73.6734 18.736 74.0788 19.408C74.4841 20.08 74.6868 20.8427 74.6868 21.696C74.6868 22.5493 74.4841 23.312 74.0788 23.984C73.6734 24.656 73.1134 25.184 72.3988 25.568C71.6841 25.9413 70.8734 26.128 69.9668 26.128ZM69.9668 24.08C70.6068 24.08 71.1294 23.8667 71.5348 23.44C71.9508 23.0027 72.1588 22.4213 72.1588 21.696C72.1588 20.9707 71.9508 20.3947 71.5348 19.968C71.1294 19.5307 70.6068 19.312 69.9668 19.312C69.3268 19.312 68.7988 19.5307 68.3828 19.968C67.9668 20.3947 67.7588 20.9707 67.7588 21.696C67.7588 22.4213 67.9668 23.0027 68.3828 23.44C68.7988 23.8667 69.3268 24.08 69.9668 24.08ZM81.9071 25.584C81.6618 25.7653 81.3578 25.904 80.9951 26C80.6431 26.0853 80.2698 26.128 79.8751 26.128C78.8511 26.128 78.0565 25.8667 77.4911 25.344C76.9365 24.8213 76.6591 24.0533 76.6591 23.04V19.504H75.3311V17.584H76.6591V15.488H79.1551V17.584H81.2991V19.504H79.1551V23.008C79.1551 23.3707 79.2458 23.6533 79.4271 23.856C79.6191 24.048 79.8858 24.144 80.2271 24.144C80.6218 24.144 80.9578 24.0373 81.2351 23.824L81.9071 25.584ZM86.2043 26.128C85.4896 26.128 84.7909 26.0427 84.1083 25.872C83.4256 25.6907 82.8816 25.4667 82.4763 25.2L83.3083 23.408C83.6923 23.6533 84.1563 23.856 84.7003 24.016C85.2443 24.1653 85.7776 24.24 86.3003 24.24C87.3563 24.24 87.8843 23.9787 87.8843 23.456C87.8843 23.2107 87.7403 23.0347 87.4523 22.928C87.1643 22.8213 86.7216 22.7307 86.1243 22.656C85.4203 22.5493 84.8389 22.4267 84.3803 22.288C83.9216 22.1493 83.5216 21.904 83.1803 21.552C82.8496 21.2 82.6842 20.6987 82.6842 20.048C82.6842 19.504 82.8389 19.024 83.1483 18.608C83.4683 18.1813 83.9269 17.8507 84.5243 17.616C85.1323 17.3813 85.8469 17.264 86.6683 17.264C87.2763 17.264 87.8789 17.3333 88.4763 17.472C89.0843 17.6 89.5856 17.7813 89.9803 18.016L89.1483 19.792C88.3909 19.3653 87.5643 19.152 86.6683 19.152C86.1349 19.152 85.7349 19.2267 85.4683 19.376C85.2016 19.5253 85.0683 19.7173 85.0683 19.952C85.0683 20.2187 85.2123 20.4053 85.5003 20.512C85.7883 20.6187 86.2469 20.72 86.8763 20.816C87.5803 20.9333 88.1563 21.0613 88.6043 21.2C89.0523 21.328 89.4416 21.568 89.7723 21.92C90.1029 22.272 90.2683 22.7627 90.2683 23.392C90.2683 23.9253 90.1083 24.4 89.7883 24.816C89.4683 25.232 88.9989 25.5573 88.3803 25.792C87.7723 26.016 87.0469 26.128 86.2043 26.128ZM97.3603 25.584C97.1149 25.7653 96.8109 25.904 96.4483 26C96.0963 26.0853 95.7229 26.128 95.3283 26.128C94.3043 26.128 93.5096 25.8667 92.9443 25.344C92.3896 24.8213 92.1123 24.0533 92.1123 23.04V19.504H90.7843V17.584H92.1123V15.488H94.6083V17.584H96.7523V19.504H94.6083V23.008C94.6083 23.3707 94.6989 23.6533 94.8802 23.856C95.0723 24.048 95.3389 24.144 95.6803 24.144C96.0749 24.144 96.4109 24.0373 96.6883 23.824L97.3603 25.584ZM101.145 18.528C101.444 18.112 101.844 17.7973 102.345 17.584C102.857 17.3707 103.444 17.264 104.105 17.264V19.568C103.828 19.5467 103.641 19.536 103.545 19.536C102.831 19.536 102.271 19.7387 101.865 20.144C101.46 20.5387 101.257 21.136 101.257 21.936V26H98.7614V17.392H101.145V18.528ZM109.015 17.264C110.348 17.264 111.372 17.584 112.087 18.224C112.801 18.8533 113.159 19.808 113.159 21.088V26H110.823V24.928C110.353 25.728 109.479 26.128 108.199 26.128C107.537 26.128 106.961 26.016 106.471 25.792C105.991 25.568 105.623 25.2587 105.367 24.864C105.111 24.4693 104.983 24.0213 104.983 23.52C104.983 22.72 105.281 22.0907 105.879 21.632C106.487 21.1733 107.42 20.944 108.679 20.944H110.663C110.663 20.4 110.497 19.984 110.167 19.696C109.836 19.3973 109.34 19.248 108.679 19.248C108.22 19.248 107.767 19.3227 107.319 19.472C106.881 19.6107 106.508 19.8027 106.199 20.048L105.303 18.304C105.772 17.9733 106.332 17.7173 106.983 17.536C107.644 17.3547 108.321 17.264 109.015 17.264ZM108.823 24.448C109.249 24.448 109.628 24.352 109.959 24.16C110.289 23.9573 110.524 23.664 110.663 23.28V22.4H108.951C107.927 22.4 107.415 22.736 107.415 23.408C107.415 23.728 107.537 23.984 107.783 24.176C108.039 24.3573 108.385 24.448 108.823 24.448ZM120.506 17.264C121.306 17.264 122.031 17.4507 122.682 17.824C123.343 18.1867 123.86 18.704 124.234 19.376C124.607 20.0373 124.794 20.8107 124.794 21.696C124.794 22.5813 124.607 23.36 124.234 24.032C123.86 24.6933 123.343 25.2107 122.682 25.584C122.031 25.9467 121.306 26.128 120.506 26.128C119.407 26.128 118.543 25.7813 117.914 25.088V29.104H115.418V17.392H117.802V18.384C118.42 17.6373 119.322 17.264 120.506 17.264ZM120.074 24.08C120.714 24.08 121.236 23.8667 121.642 23.44C122.058 23.0027 122.266 22.4213 122.266 21.696C122.266 20.9707 122.058 20.3947 121.642 19.968C121.236 19.5307 120.714 19.312 120.074 19.312C119.434 19.312 118.906 19.5307 118.49 19.968C118.084 20.3947 117.882 20.9707 117.882 21.696C117.882 22.4213 118.084 23.0027 118.49 23.44C118.906 23.8667 119.434 24.08 120.074 24.08Z" fill="white"/>
</svg>
