<svg width="97" height="40" viewBox="0 0 97 40" fill="none" xmlns="http://www.w3.org/2000/svg">
<rect width="97" height="40" fill="#1572B6"/>
<rect x="8" y="8" width="24" height="24" fill="#1572B6"/>
<path d="M12.6376 27.2006L11 11H29L27.3603 27.1981L19.9891 29L12.6376 27.2006Z" fill="white"/>
<path d="M19.9942 18.2891H22.636L22.8181 16.1192H19.9942V14H20.0013H25L24.462 20.4083H19.9942V18.2891Z" fill="#1572B6"/>
<path d="M20.0064 23.7924L19.9974 23.7951L17.7741 23.1575L17.632 21.4675H15.6278L15.9075 24.7947L19.9967 26L20.0064 25.9973V23.7924Z" fill="#1572B6"/>
<path d="M22.4661 20.3185L22.2259 23.1562L19.9994 23.7938V25.9986L24.0919 24.7947L24.4691 20.3185H22.4661Z" fill="#1572B6"/>
<path d="M20.0013 14L20.0013 16.1192H15.1789L15 14H20.0013Z" fill="#1572B6"/>
<path d="M19.9942 18.2891L19.9942 20.4028L19.9942 20.4083L17.7987 20.4083L17.6204 18.2891L19.9942 18.2891Z" fill="#1572B6"/>
<path d="M48.688 26.192C47.5467 26.192 46.512 25.9467 45.584 25.456C44.6667 24.9547 43.9413 24.2667 43.408 23.392C42.8853 22.5067 42.624 21.5093 42.624 20.4C42.624 19.2907 42.8853 18.2987 43.408 17.424C43.9413 16.5387 44.6667 15.8507 45.584 15.36C46.512 14.8587 47.552 14.608 48.704 14.608C49.6747 14.608 50.5493 14.7787 51.328 15.12C52.1173 15.4613 52.7787 15.952 53.312 16.592L51.648 18.128C50.8907 17.2533 49.952 16.816 48.832 16.816C48.1387 16.816 47.52 16.9707 46.976 17.28C46.432 17.5787 46.0053 18 45.696 18.544C45.3973 19.088 45.248 19.7067 45.248 20.4C45.248 21.0933 45.3973 21.712 45.696 22.256C46.0053 22.8 46.432 23.2267 46.976 23.536C47.52 23.8347 48.1387 23.984 48.832 23.984C49.952 23.984 50.8907 23.5413 51.648 22.656L53.312 24.192C52.7787 24.8427 52.1173 25.3387 51.328 25.68C50.5387 26.0213 49.6587 26.192 48.688 26.192ZM58.6486 26.192C57.7633 26.192 56.9046 26.0747 56.0726 25.84C55.2513 25.5947 54.59 25.28 54.0886 24.896L54.9686 22.944C55.4486 23.296 56.0193 23.5787 56.6806 23.792C57.342 24.0053 58.0033 24.112 58.6646 24.112C59.4006 24.112 59.9446 24.0053 60.2966 23.792C60.6486 23.568 60.8246 23.2747 60.8246 22.912C60.8246 22.6453 60.718 22.4267 60.5046 22.256C60.302 22.0747 60.0353 21.9307 59.7046 21.824C59.3846 21.7173 58.9473 21.6 58.3926 21.472C57.5393 21.2693 56.8406 21.0667 56.2966 20.864C55.7526 20.6613 55.2833 20.336 54.8886 19.888C54.5046 19.44 54.3126 18.8427 54.3126 18.096C54.3126 17.4453 54.4886 16.8587 54.8406 16.336C55.1926 15.8027 55.7206 15.3813 56.4246 15.072C57.1393 14.7627 58.0086 14.608 59.0326 14.608C59.7473 14.608 60.446 14.6933 61.1286 14.864C61.8113 15.0347 62.4086 15.28 62.9206 15.6L62.1206 17.568C61.086 16.9813 60.0513 16.688 59.0166 16.688C58.2913 16.688 57.7526 16.8053 57.4006 17.04C57.0593 17.2747 56.8886 17.584 56.8886 17.968C56.8886 18.352 57.086 18.64 57.4806 18.832C57.886 19.0133 58.4993 19.1947 59.3206 19.376C60.174 19.5787 60.8726 19.7813 61.4166 19.984C61.9606 20.1867 62.4246 20.5067 62.8086 20.944C63.2033 21.3813 63.4006 21.9733 63.4006 22.72C63.4006 23.36 63.2193 23.9467 62.8566 24.48C62.5046 25.0027 61.9713 25.4187 61.2566 25.728C60.542 26.0373 59.6726 26.192 58.6486 26.192ZM68.8518 26.192C67.9664 26.192 67.1078 26.0747 66.2758 25.84C65.4544 25.5947 64.7931 25.28 64.2918 24.896L65.1718 22.944C65.6518 23.296 66.2224 23.5787 66.8838 23.792C67.5451 24.0053 68.2064 24.112 68.8678 24.112C69.6038 24.112 70.1478 24.0053 70.4998 23.792C70.8518 23.568 71.0278 23.2747 71.0278 22.912C71.0278 22.6453 70.9211 22.4267 70.7078 22.256C70.5051 22.0747 70.2384 21.9307 69.9078 21.824C69.5878 21.7173 69.1504 21.6 68.5958 21.472C67.7424 21.2693 67.0438 21.0667 66.4998 20.864C65.9558 20.6613 65.4864 20.336 65.0918 19.888C64.7078 19.44 64.5158 18.8427 64.5158 18.096C64.5158 17.4453 64.6918 16.8587 65.0438 16.336C65.3958 15.8027 65.9238 15.3813 66.6278 15.072C67.3424 14.7627 68.2118 14.608 69.2358 14.608C69.9504 14.608 70.6491 14.6933 71.3318 14.864C72.0144 15.0347 72.6118 15.28 73.1238 15.6L72.3238 17.568C71.2891 16.9813 70.2544 16.688 69.2198 16.688C68.4944 16.688 67.9558 16.8053 67.6038 17.04C67.2624 17.2747 67.0918 17.584 67.0918 17.968C67.0918 18.352 67.2891 18.64 67.6838 18.832C68.0891 19.0133 68.7024 19.1947 69.5238 19.376C70.3771 19.5787 71.0758 19.7813 71.6198 19.984C72.1638 20.1867 72.6278 20.5067 73.0118 20.944C73.4064 21.3813 73.6038 21.9733 73.6038 22.72C73.6038 23.36 73.4224 23.9467 73.0598 24.48C72.7078 25.0027 72.1744 25.4187 71.4598 25.728C70.7451 26.0373 69.8758 26.192 68.8518 26.192ZM84.4341 19.36C85.4155 19.52 86.1675 19.888 86.6901 20.464C87.2128 21.0293 87.4741 21.7333 87.4741 22.576C87.4741 23.2267 87.3035 23.8293 86.9621 24.384C86.6208 24.928 86.0981 25.3653 85.3941 25.696C84.7008 26.0267 83.8475 26.192 82.8341 26.192C82.0448 26.192 81.2661 26.0907 80.4981 25.888C79.7408 25.6747 79.0955 25.376 78.5621 24.992L79.5701 23.008C79.9968 23.328 80.4875 23.5787 81.0421 23.76C81.6075 23.9307 82.1835 24.016 82.7701 24.016C83.4208 24.016 83.9328 23.8933 84.3061 23.648C84.6795 23.392 84.8661 23.0347 84.8661 22.576C84.8661 21.6587 84.1675 21.2 82.7701 21.2H81.5861V19.488L83.8901 16.88H79.1221V14.8H86.9621V16.48L84.4341 19.36Z" fill="white"/>
</svg>
