<svg width="103" height="40" viewBox="0 0 103 40" fill="none" xmlns="http://www.w3.org/2000/svg">
<rect width="103" height="40" fill="#333333"/>
<rect x="8" y="8" width="24" height="24" fill="#333333"/>
<path d="M17 29C18.6569 29 20 27.6569 20 26V23H17C15.3431 23 14 24.3431 14 26C14 27.6569 15.3431 29 17 29Z" fill="#0ACF83"/>
<path d="M14 20C14 18.3431 15.3431 17 17 17H20V23H17C15.3431 23 14 21.6569 14 20Z" fill="#A259FF"/>
<path d="M14 14C14 12.3431 15.3431 11 17 11H20V17H17C15.3431 17 14 15.6569 14 14Z" fill="#F24E1E"/>
<path d="M20 11H23C24.6569 11 26 12.3431 26 14C26 15.6569 24.6569 17 23 17H20V11Z" fill="#FF7262"/>
<path d="M26 20C26 21.6569 24.6569 23 23 23C21.3431 23 20 21.6569 20 20C20 18.3431 21.3431 17 23 17C24.6569 17 26 18.3431 26 20Z" fill="#1ABCFE"/>
<path d="M45.92 16.88V19.84H51.104V21.92H45.92V26H43.328V14.8H51.792V16.88H45.92ZM53.2145 17.392H55.7105V26H53.2145V17.392ZM54.4625 16.192C54.0038 16.192 53.6305 16.0587 53.3425 15.792C53.0545 15.5253 52.9105 15.1947 52.9105 14.8C52.9105 14.4053 53.0545 14.0747 53.3425 13.808C53.6305 13.5413 54.0038 13.408 54.4625 13.408C54.9212 13.408 55.2945 13.536 55.5825 13.792C55.8705 14.048 56.0145 14.368 56.0145 14.752C56.0145 15.168 55.8705 15.5147 55.5825 15.792C55.2945 16.0587 54.9212 16.192 54.4625 16.192ZM66.907 17.392V24.56C66.907 26.1387 66.4963 27.312 65.675 28.08C64.8537 28.848 63.6537 29.232 62.075 29.232C61.243 29.232 60.4537 29.1307 59.707 28.928C58.9603 28.7253 58.3417 28.432 57.851 28.048L58.843 26.256C59.2057 26.5547 59.6643 26.7893 60.219 26.96C60.7737 27.1413 61.3283 27.232 61.883 27.232C62.747 27.232 63.3817 27.0347 63.787 26.64C64.203 26.256 64.411 25.6693 64.411 24.88V24.512C63.7603 25.2267 62.8537 25.584 61.691 25.584C60.9017 25.584 60.1763 25.4133 59.515 25.072C58.8643 24.72 58.347 24.2293 57.963 23.6C57.579 22.9707 57.387 22.2453 57.387 21.424C57.387 20.6027 57.579 19.8773 57.963 19.248C58.347 18.6187 58.8643 18.1333 59.515 17.792C60.1763 17.44 60.9017 17.264 61.691 17.264C62.939 17.264 63.8883 17.6747 64.539 18.496V17.392H66.907ZM62.187 23.536C62.8483 23.536 63.387 23.344 63.803 22.96C64.2297 22.5653 64.443 22.0533 64.443 21.424C64.443 20.7947 64.2297 20.288 63.803 19.904C63.387 19.5093 62.8483 19.312 62.187 19.312C61.5257 19.312 60.9817 19.5093 60.555 19.904C60.1283 20.288 59.915 20.7947 59.915 21.424C59.915 22.0533 60.1283 22.5653 60.555 22.96C60.9817 23.344 61.5257 23.536 62.187 23.536ZM80.2541 17.264C81.3315 17.264 82.1848 17.584 82.8141 18.224C83.4541 18.8533 83.7741 19.8027 83.7741 21.072V26H81.2781V21.456C81.2781 20.7733 81.1341 20.2667 80.8461 19.936C80.5688 19.5947 80.1688 19.424 79.6461 19.424C79.0595 19.424 78.5955 19.616 78.2541 20C77.9128 20.3733 77.7421 20.9333 77.7421 21.68V26H75.2461V21.456C75.2461 20.1013 74.7021 19.424 73.6141 19.424C73.0381 19.424 72.5795 19.616 72.2381 20C71.8968 20.3733 71.7261 20.9333 71.7261 21.68V26H69.2301V17.392H71.6141V18.384C71.9341 18.0213 72.3235 17.744 72.7821 17.552C73.2515 17.36 73.7635 17.264 74.3181 17.264C74.9261 17.264 75.4755 17.3867 75.9661 17.632C76.4568 17.8667 76.8515 18.2133 77.1501 18.672C77.5021 18.224 77.9448 17.8773 78.4781 17.632C79.0221 17.3867 79.6141 17.264 80.2541 17.264ZM89.4834 17.264C90.8167 17.264 91.8407 17.584 92.5554 18.224C93.27 18.8533 93.6274 19.808 93.6274 21.088V26H91.2914V24.928C90.822 25.728 89.9474 26.128 88.6674 26.128C88.006 26.128 87.43 26.016 86.9394 25.792C86.4594 25.568 86.0914 25.2587 85.8354 24.864C85.5794 24.4693 85.4514 24.0213 85.4514 23.52C85.4514 22.72 85.75 22.0907 86.3474 21.632C86.9554 21.1733 87.8887 20.944 89.1474 20.944H91.1314C91.1314 20.4 90.966 19.984 90.6354 19.696C90.3047 19.3973 89.8087 19.248 89.1474 19.248C88.6887 19.248 88.2354 19.3227 87.7874 19.472C87.35 19.6107 86.9767 19.8027 86.6674 20.048L85.7714 18.304C86.2407 17.9733 86.8007 17.7173 87.4514 17.536C88.1127 17.3547 88.79 17.264 89.4834 17.264ZM89.2914 24.448C89.718 24.448 90.0967 24.352 90.4274 24.16C90.758 23.9573 90.9927 23.664 91.1314 23.28V22.4H89.4194C88.3954 22.4 87.8834 22.736 87.8834 23.408C87.8834 23.728 88.006 23.984 88.2514 24.176C88.5074 24.3573 88.854 24.448 89.2914 24.448Z" fill="white"/>
</svg>
