<svg width="75" height="40" viewBox="0 0 75 40" fill="none" xmlns="http://www.w3.org/2000/svg">
<rect width="75" height="40" fill="#F34F29"/>
<path d="M30.5905 19.0202L20.9847 9.41499C20.4319 8.86183 19.5347 8.86183 18.981 9.41499L16.9868 11.4098L19.5169 13.94C20.1051 13.7415 20.7793 13.8746 21.2479 14.3433C21.719 14.8149 21.8512 15.4947 21.6475 16.0848L24.086 18.5237C24.676 18.3203 25.3569 18.4517 25.8278 18.9237C26.4866 19.5819 26.4866 20.6491 25.8278 21.3077C25.169 21.9664 24.1022 21.9664 23.4431 21.3077C22.9478 20.812 22.8253 20.0844 23.0763 19.4741L20.8023 17.1999L20.8019 23.1848C20.9626 23.2641 21.114 23.3701 21.2479 23.5034C21.9065 24.1617 21.9065 25.2284 21.2479 25.8881C20.5893 26.5463 19.5218 26.5463 18.8639 25.8881C18.2055 25.2286 18.1515 24.1618 18.8097 23.5034C18.9725 23.3408 19.133 23.2179 19.3073 23.1357V17.0953C19.133 17.0131 18.9727 16.8911 18.8095 16.7274C18.3109 16.229 18.2177 15.497 18.4735 14.8842L15.993 12.3898L9.41326 18.9758C8.85993 19.5295 8.86341 20.4267 9.41675 20.98L19.0241 30.5852C19.5771 31.1384 20.475 31.1384 21.0288 30.5852L30.5898 21.0246C31.1431 20.4711 31.1437 19.5734 30.5905 19.0202V19.0202Z" fill="white"/>
<path d="M50.896 20.224H53.264V24.768C52.656 25.2267 51.952 25.5787 51.152 25.824C50.352 26.0693 49.5467 26.192 48.736 26.192C47.5733 26.192 46.528 25.9467 45.6 25.456C44.672 24.9547 43.9413 24.2667 43.408 23.392C42.8853 22.5067 42.624 21.5093 42.624 20.4C42.624 19.2907 42.8853 18.2987 43.408 17.424C43.9413 16.5387 44.6773 15.8507 45.616 15.36C46.5547 14.8587 47.6107 14.608 48.784 14.608C49.7653 14.608 50.656 14.7733 51.456 15.104C52.256 15.4347 52.928 15.9147 53.472 16.544L51.808 18.08C51.008 17.2373 50.0427 16.816 48.912 16.816C48.1973 16.816 47.5627 16.9653 47.008 17.264C46.4533 17.5627 46.0213 17.984 45.712 18.528C45.4027 19.072 45.248 19.696 45.248 20.4C45.248 21.0933 45.4027 21.712 45.712 22.256C46.0213 22.8 46.448 23.2267 46.992 23.536C47.5467 23.8347 48.176 23.984 48.88 23.984C49.6267 23.984 50.2987 23.824 50.896 23.504V20.224ZM55.4958 17.392H57.9918V26H55.4958V17.392ZM56.7438 16.192C56.2851 16.192 55.9118 16.0587 55.6238 15.792C55.3358 15.5253 55.1918 15.1947 55.1918 14.8C55.1918 14.4053 55.3358 14.0747 55.6238 13.808C55.9118 13.5413 56.2851 13.408 56.7438 13.408C57.2024 13.408 57.5758 13.536 57.8638 13.792C58.1518 14.048 58.2958 14.368 58.2958 14.752C58.2958 15.168 58.1518 15.5147 57.8638 15.792C57.5758 16.0587 57.2024 16.192 56.7438 16.192ZM65.8603 25.584C65.6149 25.7653 65.3109 25.904 64.9483 26C64.5963 26.0853 64.2229 26.128 63.8283 26.128C62.8043 26.128 62.0096 25.8667 61.4443 25.344C60.8896 24.8213 60.6123 24.0533 60.6123 23.04V19.504H59.2843V17.584H60.6123V15.488H63.1083V17.584H65.2523V19.504H63.1083V23.008C63.1083 23.3707 63.1989 23.6533 63.3802 23.856C63.5723 24.048 63.8389 24.144 64.1803 24.144C64.5749 24.144 64.9109 24.0373 65.1883 23.824L65.8603 25.584Z" fill="white"/>
</svg>
