<svg width="108" height="40" viewBox="0 0 108 40" fill="none" xmlns="http://www.w3.org/2000/svg">
<rect width="108" height="40" fill="#635B5B"/>
<path fill-rule="evenodd" clip-rule="evenodd" d="M22.9354 25.3601C23.492 26.1946 23.5205 27.146 23.5116 28.1106C23.5009 29.2786 23.5095 30.4466 23.5107 31.6147C23.5111 31.9898 23.5023 32 23.1503 32C21.6738 31.9998 20.1973 31.9999 18.7207 31.9999C18.3914 31.9999 18.3618 31.9673 18.3623 31.6251C18.3633 30.8802 18.3626 30.1352 18.3626 29.3504C18.1079 29.3773 17.8525 29.4056 17.5968 29.4313C16.3493 29.5563 15.2619 29.2262 14.4202 28.2167C14.3024 28.0754 14.2083 27.9118 14.1111 27.7534C13.6826 27.055 13.2675 26.3474 12.8239 25.6595C12.6866 25.4467 12.474 25.286 12.2964 25.1009C12.2028 25.0035 12.1101 24.9051 12 24.7891C12.3078 24.582 12.6026 24.6384 12.8818 24.6829C13.5788 24.794 14.05 25.2408 14.4232 25.8336C14.609 26.1286 14.8012 26.4295 15.0397 26.6766C15.8037 27.4682 16.7316 27.7236 17.7826 27.4768C18.4605 27.3176 18.329 27.3915 18.4303 26.7504C18.4979 26.3223 18.612 25.9145 18.8371 25.5448C18.8744 25.4835 18.9053 25.418 18.9513 25.3317C18.6538 25.2709 18.376 25.2222 18.1019 25.1567C17.0145 24.8972 16.0117 24.4583 15.2181 23.6146C14.3771 22.7202 13.9219 21.6492 13.8903 20.3922C13.8637 19.336 13.8699 18.2829 14.101 17.2454C14.2493 16.5794 14.5174 15.9827 14.988 15.4879C15.0609 15.4112 15.1036 15.2294 15.0696 15.1293C14.7344 14.141 14.7803 13.1639 15.0901 12.1813C15.1434 12.0123 15.1995 11.9715 15.3626 12.0177C15.9606 12.1869 16.4725 12.5063 16.8995 12.9641C17.1909 13.2765 17.4576 13.6138 17.7469 13.9536C18.4856 13.4012 19.3596 13.3818 20.222 13.3297C21.1754 13.2721 22.1296 13.2877 23.0665 13.4979C23.4304 13.5796 23.7764 13.7462 24.0999 13.863C24.4799 13.4892 24.8723 13.1088 25.2587 12.7217C25.6076 12.3721 26.0209 12.1544 26.4871 12.0255C26.6655 11.9761 26.7561 12.02 26.8165 12.2003C27.1372 13.1568 27.1914 14.1129 26.8311 15.0718C26.7785 15.2116 26.7425 15.3432 26.8666 15.4661C27.4969 16.09 27.8105 16.8756 27.8771 17.7561C27.9475 18.6858 28.0319 19.6234 27.9878 20.5513C27.9058 22.2733 27.0799 23.5664 25.6451 24.436C24.8758 24.9022 24.0359 25.1579 23.1587 25.2926C23.1084 25.3003 23.0577 25.3055 23.0081 25.3166C22.9881 25.3212 22.9707 25.3384 22.9354 25.3601Z" fill="white"/>
<path d="M50.896 20.224H53.264V24.768C52.656 25.2267 51.952 25.5787 51.152 25.824C50.352 26.0693 49.5467 26.192 48.736 26.192C47.5733 26.192 46.528 25.9467 45.6 25.456C44.672 24.9547 43.9413 24.2667 43.408 23.392C42.8853 22.5067 42.624 21.5093 42.624 20.4C42.624 19.2907 42.8853 18.2987 43.408 17.424C43.9413 16.5387 44.6773 15.8507 45.616 15.36C46.5547 14.8587 47.6107 14.608 48.784 14.608C49.7653 14.608 50.656 14.7733 51.456 15.104C52.256 15.4347 52.928 15.9147 53.472 16.544L51.808 18.08C51.008 17.2373 50.0427 16.816 48.912 16.816C48.1973 16.816 47.5627 16.9653 47.008 17.264C46.4533 17.5627 46.0213 17.984 45.712 18.528C45.4027 19.072 45.248 19.696 45.248 20.4C45.248 21.0933 45.4027 21.712 45.712 22.256C46.0213 22.8 46.448 23.2267 46.992 23.536C47.5467 23.8347 48.176 23.984 48.88 23.984C49.6267 23.984 50.2987 23.824 50.896 23.504V20.224ZM55.4958 17.392H57.9918V26H55.4958V17.392ZM56.7438 16.192C56.2851 16.192 55.9118 16.0587 55.6238 15.792C55.3358 15.5253 55.1918 15.1947 55.1918 14.8C55.1918 14.4053 55.3358 14.0747 55.6238 13.808C55.9118 13.5413 56.2851 13.408 56.7438 13.408C57.2024 13.408 57.5758 13.536 57.8638 13.792C58.1518 14.048 58.2958 14.368 58.2958 14.752C58.2958 15.168 58.1518 15.5147 57.8638 15.792C57.5758 16.0587 57.2024 16.192 56.7438 16.192ZM65.8603 25.584C65.6149 25.7653 65.3109 25.904 64.9483 26C64.5963 26.0853 64.2229 26.128 63.8283 26.128C62.8043 26.128 62.0096 25.8667 61.4443 25.344C60.8896 24.8213 60.6123 24.0533 60.6123 23.04V19.504H59.2843V17.584H60.6123V15.488H63.1083V17.584H65.2523V19.504H63.1083V23.008C63.1083 23.3707 63.1989 23.6533 63.3802 23.856C63.5723 24.048 63.8389 24.144 64.1803 24.144C64.5749 24.144 64.9109 24.0373 65.1883 23.824L65.8603 25.584ZM72.4934 17.264C73.56 17.264 74.4187 17.584 75.0694 18.224C75.7307 18.864 76.0614 19.8133 76.0614 21.072V26H73.5654V21.456C73.5654 20.7733 73.416 20.2667 73.1174 19.936C72.8187 19.5947 72.3867 19.424 71.8214 19.424C71.192 19.424 70.6907 19.6213 70.3174 20.016C69.944 20.4 69.7574 20.976 69.7574 21.744V26H67.2614V14.128H69.7574V18.288C70.088 17.9573 70.488 17.7067 70.9574 17.536C71.4267 17.3547 71.9387 17.264 72.4934 17.264ZM86.9959 17.392V26H84.6279V24.976C84.2972 25.3493 83.9025 25.6373 83.4439 25.84C82.9852 26.032 82.4892 26.128 81.9559 26.128C80.8252 26.128 79.9292 25.8027 79.2679 25.152C78.6065 24.5013 78.2759 23.536 78.2759 22.256V17.392H80.7719V21.888C80.7719 23.2747 81.3532 23.968 82.5159 23.968C83.1132 23.968 83.5932 23.776 83.9559 23.392C84.3185 22.9973 84.4999 22.416 84.4999 21.648V17.392H86.9959ZM94.3963 17.264C95.1963 17.264 95.9216 17.4507 96.5723 17.824C97.2336 18.1867 97.7509 18.704 98.1243 19.376C98.4976 20.0373 98.6843 20.8107 98.6843 21.696C98.6843 22.5813 98.4976 23.36 98.1243 24.032C97.7509 24.6933 97.2336 25.2107 96.5723 25.584C95.9216 25.9467 95.1963 26.128 94.3963 26.128C93.2123 26.128 92.3109 25.7547 91.6923 25.008V26H89.3083V14.128H91.8043V18.304C92.4336 17.6107 93.2976 17.264 94.3963 17.264ZM93.9643 24.08C94.6043 24.08 95.1269 23.8667 95.5323 23.44C95.9483 23.0027 96.1562 22.4213 96.1562 21.696C96.1562 20.9707 95.9483 20.3947 95.5323 19.968C95.1269 19.5307 94.6043 19.312 93.9643 19.312C93.3243 19.312 92.7963 19.5307 92.3802 19.968C91.9749 20.3947 91.7723 20.9707 91.7723 21.696C91.7723 22.4213 91.9749 23.0027 92.3802 23.44C92.7963 23.8667 93.3243 24.08 93.9643 24.08Z" fill="white"/>
</svg>
