<svg width="112" height="40" viewBox="0 0 112 40" fill="none" xmlns="http://www.w3.org/2000/svg">
<rect width="112" height="40" fill="#F16529"/>
<path d="M11 11L12.6389 27.2003L19.9955 29L27.3582 27.2011L29 11H11Z" fill="white"/>
<path d="M24.8221 16.1177H20.0005H17.1819L17.3641 18.2878H20.0005H24.6407L24.0932 24.7957L20.0005 25.999L19.9973 26L15.9072 24.7957L15.6219 21.3919H17.6257L17.7742 23.1576L19.9978 23.7953L20.001 23.7944L22.2266 23.1567L22.4585 20.4081H20.001H15.5391L15 14H20.0005H25L24.8221 16.1177Z" fill="#E44D26"/>
<path d="M53.6 14.8V26H51.008V21.408H45.92V26H43.328V14.8H45.92V19.216H51.008V14.8H53.6ZM58.5699 16.912H54.9859V14.8H64.7459V16.912H61.1619V26H58.5699V16.912ZM76.3325 26L76.3165 19.28L73.0205 24.816H71.8525L68.5725 19.424V26H66.1405V14.8H68.2845L72.4765 21.76L76.6045 14.8H78.7325L78.7645 26H76.3325ZM81.4218 14.8H84.0138V23.888H89.6298V26H81.4218V14.8ZM98.7453 19.008C100.324 19.008 101.487 19.3227 102.233 19.952C102.991 20.5813 103.369 21.424 103.369 22.48C103.369 23.1627 103.199 23.7867 102.857 24.352C102.516 24.9067 101.993 25.3547 101.289 25.696C100.596 26.0267 99.7373 26.192 98.7133 26.192C97.9239 26.192 97.1453 26.0907 96.3773 25.888C95.6199 25.6747 94.9746 25.376 94.4413 24.992L95.4653 23.008C95.8919 23.328 96.3826 23.5787 96.9373 23.76C97.4919 23.9307 98.0626 24.016 98.6493 24.016C99.2999 24.016 99.8119 23.888 100.185 23.632C100.559 23.376 100.745 23.0187 100.745 22.56C100.745 22.08 100.548 21.7173 100.153 21.472C99.7693 21.2267 99.0973 21.104 98.1373 21.104H95.2733L95.8493 14.8H102.681V16.88H98.0093L97.8333 19.008H98.7453Z" fill="white"/>
</svg>
