<svg width="24" height="24" viewBox="0 0 24 24" fill="none" xmlns="http://www.w3.org/2000/svg">
<rect width="24" height="24" fill="#0077B5"/>
<path d="M6 7V18L12 24H24V22.5L7.5 6L6 7Z" fill="#005682"/>
<path d="M24 17.5L16.5 10H14.5L12.5 12V24H24V17.5Z" fill="#005582"/>
<path fill-rule="evenodd" clip-rule="evenodd" d="M8.89356 7.39853C8.89356 8.17595 8.33501 8.79802 7.43818 8.79802H7.42174C6.55824 8.79802 6 8.17595 6 7.39853C6 6.60466 6.57524 6 7.45513 6C8.33501 6 8.87687 6.60466 8.89356 7.39853ZM8.72392 9.90318V17.9998H6.15186V9.90318H8.72392ZM18 17.9998L18.0001 13.3574C18.0001 10.8705 16.7312 9.71303 15.0387 9.71303C13.6731 9.71303 13.0617 10.4989 12.7203 11.0502V9.90337H10.1479C10.1819 10.6631 10.1479 18 10.1479 18H12.7203V13.4782C12.7203 13.2362 12.737 12.9948 12.805 12.8216C12.9909 12.3381 13.4142 11.8376 14.1247 11.8376C15.0558 11.8376 15.428 12.5801 15.428 13.6681V17.9998H18Z" fill="white"/>
</svg>
