<svg width="24" height="24" viewBox="0 0 24 24" fill="none" xmlns="http://www.w3.org/2000/svg">
<rect width="24" height="24" fill="#1572B6"/>
<path d="M24 14L17 7V8H6V16L14 24H24V14Z" fill="#0F5182"/>
<path fill-rule="evenodd" clip-rule="evenodd" d="M7.2 7H16.8C17.46 7 18 7.5625 18 8.25V15.75C18 16.4375 17.46 17 16.8 17H7.2C6.54 17 6 16.4375 6 15.75V8.25C6 7.5625 6.54 7 7.2 7ZM12.6359 12.2125L16.5599 9.65629C16.7099 9.55629 16.7999 9.38754 16.7999 9.20629C16.7999 8.78754 16.3619 8.53754 16.0199 8.75629L11.9999 11.375L7.97993 8.75629C7.63793 8.53754 7.19993 8.78754 7.19993 9.20629C7.19993 9.38754 7.28993 9.55629 7.43993 9.65629L11.3639 12.2125C11.7539 12.4688 12.2459 12.4688 12.6359 12.2125Z" fill="white"/>
</svg>
