<svg width="113" height="40" viewBox="0 0 113 40" fill="none" xmlns="http://www.w3.org/2000/svg">
<rect width="113" height="40" fill="#46483E"/>
<rect x="8" y="8" width="24" height="24" fill="#46483E"/>
<path d="M19.9577 29C19.7037 29 19.478 28.9437 19.2522 28.8028L17.0511 27.507C16.7125 27.3099 16.8818 27.2535 16.9947 27.2254C17.4462 27.0563 17.5309 27.0282 17.9824 26.7746C18.0388 26.7465 18.0952 26.7465 18.1517 26.8028L19.8448 27.8169C19.9012 27.8451 19.9859 27.8451 20.0423 27.8169L26.6455 24.0141C26.7019 23.9859 26.7584 23.9014 26.7584 23.8451V16.2394C26.7584 16.1549 26.7302 16.0986 26.6455 16.0704L20.0705 12.2394C20.0141 12.2113 19.9295 12.2113 19.873 12.2394L13.2698 16.0141C13.2134 16.0423 13.157 16.1268 13.157 16.1831V23.7887C13.157 23.8451 13.1852 23.9296 13.2698 23.9577L15.0758 25C16.0635 25.4789 16.6561 24.9155 16.6561 24.3239V16.8592C16.6561 16.7465 16.7407 16.662 16.8536 16.662H17.7002C17.8131 16.662 17.8977 16.7465 17.8977 16.8592V24.3521C17.8977 25.6761 17.1922 26.4084 15.9506 26.4084C15.5556 26.4084 15.2734 26.4084 14.4268 25.9859L12.7055 25C12.2822 24.7465 12 24.2958 12 23.7887V16.1831C12 15.7042 12.254 15.2254 12.7055 14.9718L19.3086 11.169C19.7319 10.9437 20.2963 10.9437 20.6914 11.169L27.2945 14.9718C27.7178 15.2254 28 15.6761 28 16.1831V23.7887C28 24.2676 27.746 24.7465 27.2945 25L20.6631 28.831C20.4374 28.9437 20.2116 29 19.9577 29Z" fill="#81CF08"/>
<path d="M22.0177 23.761C19.1394 23.761 18.5186 22.437 18.5186 21.3384C18.5186 21.2258 18.6032 21.1413 18.7161 21.1413H19.5626C19.6473 21.1413 19.732 21.1976 19.7602 21.3103C19.8731 22.1835 20.2681 22.6061 22.0177 22.6061C23.4004 22.6061 23.993 22.2962 23.993 21.5638C23.993 21.1413 23.8237 20.8314 21.6508 20.6061C19.8448 20.437 18.7161 20.0427 18.7161 18.5779C18.7161 17.2539 19.8448 16.4652 21.7355 16.4652C23.8519 16.4652 24.896 17.1976 25.0371 18.7751C25.0371 18.8314 25.0089 18.8877 24.9806 18.9159C24.9524 18.9441 24.896 18.9723 24.8395 18.9723H23.993C23.9083 18.9723 23.8237 18.9159 23.7954 18.8314C23.5979 17.93 23.09 17.6201 21.7355 17.6201C20.2117 17.6201 20.0424 18.1554 20.0424 18.5497C20.0424 19.0286 20.2399 19.1694 22.2999 19.4511C24.3316 19.7046 25.291 20.099 25.291 21.5075C25.291 22.9441 24.1059 23.761 22.0177 23.761Z" fill="#81CF08"/>
<path d="M53.6 14.8V26H51.472L45.888 19.2V26H43.328V14.8H45.472L51.04 21.6V14.8H53.6ZM60.1699 26.128C59.2632 26.128 58.4472 25.9413 57.7219 25.568C57.0072 25.184 56.4472 24.656 56.0419 23.984C55.6365 23.312 55.4339 22.5493 55.4339 21.696C55.4339 20.8427 55.6365 20.08 56.0419 19.408C56.4472 18.736 57.0072 18.2133 57.7219 17.84C58.4472 17.456 59.2632 17.264 60.1699 17.264C61.0765 17.264 61.8872 17.456 62.6019 17.84C63.3165 18.2133 63.8765 18.736 64.2819 19.408C64.6872 20.08 64.8899 20.8427 64.8899 21.696C64.8899 22.5493 64.6872 23.312 64.2819 23.984C63.8765 24.656 63.3165 25.184 62.6019 25.568C61.8872 25.9413 61.0765 26.128 60.1699 26.128ZM60.1699 24.08C60.8099 24.08 61.3325 23.8667 61.7379 23.44C62.1539 23.0027 62.3619 22.4213 62.3619 21.696C62.3619 20.9707 62.1539 20.3947 61.7379 19.968C61.3325 19.5307 60.8099 19.312 60.1699 19.312C59.5299 19.312 59.0019 19.5307 58.5859 19.968C58.1699 20.3947 57.9619 20.9707 57.9619 21.696C57.9619 22.4213 58.1699 23.0027 58.5859 23.44C59.0019 23.8667 59.5299 24.08 60.1699 24.08ZM75.3263 14.128V26H72.9423V25.008C72.3236 25.7547 71.4276 26.128 70.2543 26.128C69.4436 26.128 68.7076 25.9467 68.0463 25.584C67.3956 25.2213 66.8836 24.704 66.5103 24.032C66.1369 23.36 65.9503 22.5813 65.9503 21.696C65.9503 20.8107 66.1369 20.032 66.5103 19.36C66.8836 18.688 67.3956 18.1707 68.0463 17.808C68.7076 17.4453 69.4436 17.264 70.2543 17.264C71.3529 17.264 72.2116 17.6107 72.8303 18.304V14.128H75.3263ZM70.6863 24.08C71.3156 24.08 71.8383 23.8667 72.2543 23.44C72.6703 23.0027 72.8783 22.4213 72.8783 21.696C72.8783 20.9707 72.6703 20.3947 72.2543 19.968C71.8383 19.5307 71.3156 19.312 70.6863 19.312C70.0463 19.312 69.5183 19.5307 69.1023 19.968C68.6863 20.3947 68.4783 20.9707 68.4783 21.696C68.4783 22.4213 68.6863 23.0027 69.1023 23.44C69.5183 23.8667 70.0463 24.08 70.6863 24.08ZM86.0684 21.728C86.0684 21.76 86.0524 21.984 86.0204 22.4H79.5084C79.6257 22.9333 79.903 23.3547 80.3404 23.664C80.7777 23.9733 81.3217 24.128 81.9724 24.128C82.4204 24.128 82.815 24.064 83.1564 23.936C83.5084 23.7973 83.8337 23.584 84.1324 23.296L85.4604 24.736C84.6497 25.664 83.4657 26.128 81.9084 26.128C80.9377 26.128 80.079 25.9413 79.3324 25.568C78.5857 25.184 78.0097 24.656 77.6044 23.984C77.199 23.312 76.9964 22.5493 76.9964 21.696C76.9964 20.8533 77.1937 20.096 77.5884 19.424C77.9937 18.7413 78.543 18.2133 79.2364 17.84C79.9404 17.456 80.7244 17.264 81.5884 17.264C82.431 17.264 83.1937 17.4453 83.8764 17.808C84.559 18.1707 85.0924 18.6933 85.4764 19.376C85.871 20.048 86.0684 20.832 86.0684 21.728ZM81.6044 19.152C81.039 19.152 80.5644 19.312 80.1804 19.632C79.7964 19.952 79.5617 20.3893 79.4764 20.944H83.7164C83.631 20.4 83.3964 19.968 83.0124 19.648C82.6284 19.3173 82.159 19.152 81.6044 19.152ZM88.6741 26.128C88.2368 26.128 87.8688 25.9787 87.5701 25.68C87.2715 25.3813 87.1221 25.008 87.1221 24.56C87.1221 24.1013 87.2715 23.7333 87.5701 23.456C87.8688 23.168 88.2368 23.024 88.6741 23.024C89.1115 23.024 89.4795 23.168 89.7781 23.456C90.0768 23.7333 90.2261 24.1013 90.2261 24.56C90.2261 25.008 90.0768 25.3813 89.7781 25.68C89.4795 25.9787 89.1115 26.128 88.6741 26.128ZM91.4339 29.232C90.5592 29.232 89.8925 29.072 89.4339 28.752L90.1059 26.944C90.3939 27.1467 90.7459 27.248 91.1619 27.248C91.4819 27.248 91.7325 27.1413 91.9139 26.928C92.0952 26.7253 92.1859 26.416 92.1859 26V17.392H94.6819V25.984C94.6819 26.9867 94.3939 27.776 93.8179 28.352C93.2525 28.9387 92.4579 29.232 91.4339 29.232ZM93.4339 16.192C92.9752 16.192 92.6019 16.0587 92.3139 15.792C92.0259 15.5253 91.8819 15.1947 91.8819 14.8C91.8819 14.4053 92.0259 14.0747 92.3139 13.808C92.6019 13.5413 92.9752 13.408 93.4339 13.408C93.8925 13.408 94.2659 13.536 94.5539 13.792C94.8419 14.048 94.9859 14.368 94.9859 14.752C94.9859 15.168 94.8419 15.5147 94.5539 15.792C94.2659 16.0587 93.8925 16.192 93.4339 16.192ZM99.8761 26.128C99.1615 26.128 98.4628 26.0427 97.7801 25.872C97.0975 25.6907 96.5535 25.4667 96.1481 25.2L96.9801 23.408C97.3641 23.6533 97.8281 23.856 98.3721 24.016C98.9161 24.1653 99.4495 24.24 99.9721 24.24C101.028 24.24 101.556 23.9787 101.556 23.456C101.556 23.2107 101.412 23.0347 101.124 22.928C100.836 22.8213 100.393 22.7307 99.7961 22.656C99.0921 22.5493 98.5108 22.4267 98.0521 22.288C97.5935 22.1493 97.1935 21.904 96.8521 21.552C96.5215 21.2 96.3561 20.6987 96.3561 20.048C96.3561 19.504 96.5108 19.024 96.8201 18.608C97.1401 18.1813 97.5988 17.8507 98.1961 17.616C98.8041 17.3813 99.5188 17.264 100.34 17.264C100.948 17.264 101.551 17.3333 102.148 17.472C102.756 17.6 103.257 17.7813 103.652 18.016L102.82 19.792C102.063 19.3653 101.236 19.152 100.34 19.152C99.8068 19.152 99.4068 19.2267 99.1401 19.376C98.8735 19.5253 98.7401 19.7173 98.7401 19.952C98.7401 20.2187 98.8841 20.4053 99.1721 20.512C99.4601 20.6187 99.9188 20.72 100.548 20.816C101.252 20.9333 101.828 21.0613 102.276 21.2C102.724 21.328 103.113 21.568 103.444 21.92C103.775 22.272 103.94 22.7627 103.94 23.392C103.94 23.9253 103.78 24.4 103.46 24.816C103.14 25.232 102.671 25.5573 102.052 25.792C101.444 26.016 100.719 26.128 99.8761 26.128Z" fill="white"/>
</svg>
