<svg width="88" height="40" viewBox="0 0 88 40" fill="none" xmlns="http://www.w3.org/2000/svg">
<rect width="88" height="40" fill="#CC6699"/>
<path d="M31.993 8H8.00703C8.00315 8 8 8.00315 8 8.00703V31.993C8 31.9969 8.00315 32 8.00703 32H31.993C31.9969 32 32 31.9969 32 31.993V8.00703C32 8.00315 31.9969 8 31.993 8Z" fill="white"/>
<path d="M20.0939 12.1249C15.5939 13.6718 12.6877 16.8124 12.9689 18.6874C13.2502 20.5624 16.0627 22.0624 17.3283 23.0468C15.6877 23.8906 13.6252 25.1562 13.6721 26.7968C13.7658 29.0468 16.2033 28.3437 17.2346 27.6874C18.2658 27.0312 19.2971 25.2031 18.6408 23.2812C20.0939 22.9062 21.3596 23.3749 21.7346 23.6562C23.1877 24.6874 22.4377 25.8593 21.9221 26.0468C21.4064 26.2343 21.7346 26.3281 22.0627 26.2343C22.3908 26.1406 23.0939 25.6718 23.0939 24.8749C23.0939 22.8593 20.9377 21.9218 18.2658 22.6249C16.7189 20.9843 14.6096 20.2343 14.7033 18.4531C14.7502 17.7968 14.9846 16.1093 19.1564 13.9999C23.3283 11.8906 26.2814 12.7343 25.9064 14.6562C25.3439 17.5624 20.2814 19.5312 18.5002 17.8437C18.4064 17.6562 18.0783 17.5156 18.2658 18.0312C19.2033 20.3749 26.7971 19.2968 27.1252 14.3281C27.2189 11.7031 23.4221 10.9999 20.0939 12.1249ZM16.0627 27.1249C14.8908 27.4999 14.9377 26.7499 14.9846 26.4687C15.1252 25.6718 15.7814 24.6874 17.7502 23.7031C18.3127 25.4843 17.0471 26.8437 16.0627 27.1249Z" fill="#CC6699"/>
<path d="M47.008 26.192C46.1227 26.192 45.264 26.0747 44.432 25.84C43.6107 25.5947 42.9493 25.28 42.448 24.896L43.328 22.944C43.808 23.296 44.3787 23.5787 45.04 23.792C45.7013 24.0053 46.3627 24.112 47.024 24.112C47.76 24.112 48.304 24.0053 48.656 23.792C49.008 23.568 49.184 23.2747 49.184 22.912C49.184 22.6453 49.0773 22.4267 48.864 22.256C48.6613 22.0747 48.3947 21.9307 48.064 21.824C47.744 21.7173 47.3067 21.6 46.752 21.472C45.8987 21.2693 45.2 21.0667 44.656 20.864C44.112 20.6613 43.6427 20.336 43.248 19.888C42.864 19.44 42.672 18.8427 42.672 18.096C42.672 17.4453 42.848 16.8587 43.2 16.336C43.552 15.8027 44.08 15.3813 44.784 15.072C45.4987 14.7627 46.368 14.608 47.392 14.608C48.1067 14.608 48.8053 14.6933 49.488 14.864C50.1707 15.0347 50.768 15.28 51.28 15.6L50.48 17.568C49.4453 16.9813 48.4107 16.688 47.376 16.688C46.6507 16.688 46.112 16.8053 45.76 17.04C45.4187 17.2747 45.248 17.584 45.248 17.968C45.248 18.352 45.4453 18.64 45.84 18.832C46.2453 19.0133 46.8587 19.1947 47.68 19.376C48.5333 19.5787 49.232 19.7813 49.776 19.984C50.32 20.1867 50.784 20.5067 51.168 20.944C51.5627 21.3813 51.76 21.9733 51.76 22.72C51.76 23.36 51.5787 23.9467 51.216 24.48C50.864 25.0027 50.3307 25.4187 49.616 25.728C48.9013 26.0373 48.032 26.192 47.008 26.192ZM56.8271 17.264C58.1605 17.264 59.1845 17.584 59.8991 18.224C60.6138 18.8533 60.9711 19.808 60.9711 21.088V26H58.6351V24.928C58.1658 25.728 57.2911 26.128 56.0111 26.128C55.3498 26.128 54.7738 26.016 54.2831 25.792C53.8031 25.568 53.4351 25.2587 53.1791 24.864C52.9231 24.4693 52.7951 24.0213 52.7951 23.52C52.7951 22.72 53.0938 22.0907 53.6911 21.632C54.2991 21.1733 55.2325 20.944 56.4911 20.944H58.4751C58.4751 20.4 58.3098 19.984 57.9791 19.696C57.6485 19.3973 57.1525 19.248 56.4911 19.248C56.0325 19.248 55.5791 19.3227 55.1311 19.472C54.6938 19.6107 54.3205 19.8027 54.0111 20.048L53.1151 18.304C53.5845 17.9733 54.1445 17.7173 54.7951 17.536C55.4565 17.3547 56.1338 17.264 56.8271 17.264ZM56.6351 24.448C57.0618 24.448 57.4405 24.352 57.7711 24.16C58.1018 23.9573 58.3365 23.664 58.4751 23.28V22.4H56.7631C55.7391 22.4 55.2271 22.736 55.2271 23.408C55.2271 23.728 55.3498 23.984 55.5951 24.176C55.8511 24.3573 56.1978 24.448 56.6351 24.448ZM66.1261 26.128C65.4115 26.128 64.7128 26.0427 64.0301 25.872C63.3475 25.6907 62.8035 25.4667 62.3981 25.2L63.2301 23.408C63.6141 23.6533 64.0781 23.856 64.6221 24.016C65.1661 24.1653 65.6995 24.24 66.2221 24.24C67.2781 24.24 67.8061 23.9787 67.8061 23.456C67.8061 23.2107 67.6621 23.0347 67.3741 22.928C67.0861 22.8213 66.6435 22.7307 66.0461 22.656C65.3421 22.5493 64.7608 22.4267 64.3021 22.288C63.8435 22.1493 63.4435 21.904 63.1021 21.552C62.7715 21.2 62.6061 20.6987 62.6061 20.048C62.6061 19.504 62.7608 19.024 63.0701 18.608C63.3901 18.1813 63.8488 17.8507 64.4461 17.616C65.0541 17.3813 65.7688 17.264 66.5901 17.264C67.1981 17.264 67.8008 17.3333 68.3981 17.472C69.0061 17.6 69.5075 17.7813 69.9021 18.016L69.0701 19.792C68.3128 19.3653 67.4861 19.152 66.5901 19.152C66.0568 19.152 65.6568 19.2267 65.3901 19.376C65.1235 19.5253 64.9901 19.7173 64.9901 19.952C64.9901 20.2187 65.1341 20.4053 65.4221 20.512C65.7101 20.6187 66.1688 20.72 66.7981 20.816C67.5021 20.9333 68.0781 21.0613 68.5261 21.2C68.9741 21.328 69.3635 21.568 69.6941 21.92C70.0248 22.272 70.1901 22.7627 70.1901 23.392C70.1901 23.9253 70.0301 24.4 69.7101 24.816C69.3901 25.232 68.9208 25.5573 68.3021 25.792C67.6941 26.016 66.9688 26.128 66.1261 26.128ZM74.6261 26.128C73.9115 26.128 73.2128 26.0427 72.5301 25.872C71.8475 25.6907 71.3035 25.4667 70.8981 25.2L71.7301 23.408C72.1141 23.6533 72.5781 23.856 73.1221 24.016C73.6661 24.1653 74.1995 24.24 74.7221 24.24C75.7781 24.24 76.3061 23.9787 76.3061 23.456C76.3061 23.2107 76.1621 23.0347 75.8741 22.928C75.5861 22.8213 75.1435 22.7307 74.5461 22.656C73.8421 22.5493 73.2608 22.4267 72.8021 22.288C72.3435 22.1493 71.9435 21.904 71.6021 21.552C71.2715 21.2 71.1061 20.6987 71.1061 20.048C71.1061 19.504 71.2608 19.024 71.5701 18.608C71.8901 18.1813 72.3488 17.8507 72.9461 17.616C73.5541 17.3813 74.2688 17.264 75.0901 17.264C75.6981 17.264 76.3008 17.3333 76.8981 17.472C77.5061 17.6 78.0075 17.7813 78.4021 18.016L77.5701 19.792C76.8128 19.3653 75.9861 19.152 75.0901 19.152C74.5568 19.152 74.1568 19.2267 73.8901 19.376C73.6235 19.5253 73.4901 19.7173 73.4901 19.952C73.4901 20.2187 73.6341 20.4053 73.9221 20.512C74.2101 20.6187 74.6688 20.72 75.2981 20.816C76.0021 20.9333 76.5781 21.0613 77.0261 21.2C77.4741 21.328 77.8635 21.568 78.1941 21.92C78.5248 22.272 78.6901 22.7627 78.6901 23.392C78.6901 23.9253 78.5301 24.4 78.2101 24.816C77.8901 25.232 77.4208 25.5573 76.8021 25.792C76.1941 26.016 75.4688 26.128 74.6261 26.128Z" fill="white"/>
</svg>
