<svg width="140" height="40" viewBox="0 0 140 40" fill="none" xmlns="http://www.w3.org/2000/svg">
<rect width="140" height="40" fill="#007ACC"/>
<rect x="8" y="8" width="24" height="24" fill="white"/>
<path d="M27.3835 20.0832C27.9296 20.2037 28.4259 20.4752 28.8099 20.8636C29.0213 21.0729 29.205 21.3058 29.3571 21.5574C29.3571 21.5851 28.3721 22.2182 27.772 22.572C27.7501 22.5858 27.6625 22.4957 27.5659 22.3586C27.4563 22.1789 27.3007 22.0285 27.1134 21.9214C26.9262 21.8144 26.7135 21.7542 26.4951 21.7464C25.8038 21.7013 25.3587 22.0465 25.3624 22.6136C25.3567 22.7548 25.3907 22.8949 25.4609 23.0194C25.6123 23.3195 25.895 23.4981 26.7815 23.8623C28.4141 24.5301 29.1127 24.9706 29.5468 25.5967C30.032 26.2904 30.1396 27.4108 29.8113 28.2398C29.4465 29.1417 28.5527 29.7539 27.2886 29.9568C26.7113 30.0197 26.1279 30.0139 25.5521 29.9395C24.6695 29.8012 23.8566 29.3983 23.2319 28.7896C23.0221 28.5693 22.6135 27.9953 22.639 27.9537C22.7056 27.9067 22.7757 27.8643 22.8488 27.827L23.6934 27.3831L24.3482 27.0223L24.485 27.2148C24.7159 27.5288 25.0097 27.7964 25.3496 28.0022C26.0792 28.3664 27.0752 28.3161 27.5677 27.8947C27.733 27.7403 27.8362 27.5356 27.8592 27.3163C27.8822 27.097 27.8236 26.877 27.6935 26.6945C27.5111 26.4534 27.1463 26.2505 26.1267 25.8273C24.9501 25.3452 24.443 25.0469 23.9797 24.5717C23.6905 24.2581 23.4769 23.8881 23.3541 23.4877C23.2624 23.0303 23.2489 22.5618 23.3139 22.1002C23.5565 21.0197 24.4084 20.2653 25.6524 20.0416C26.2285 19.9738 26.8121 19.989 27.3835 20.0866V20.0832ZM22.0316 20.992V21.88H19.0712V29.8979H16.9716V21.8782H14.0039V21.0111C13.9946 20.712 14.0019 20.4127 14.0258 20.1144C14.0404 20.0988 15.8498 20.0988 18.0387 20.0988H22.0207L22.0316 20.992Z" fill="#007ACC"/>
<path d="M45.648 16.912H42.064V14.8H51.824V16.912H48.24V26H45.648V16.912ZM61.071 17.392L57.183 26.528C56.7883 27.52 56.2977 28.2187 55.711 28.624C55.135 29.0293 54.4363 29.232 53.615 29.232C53.167 29.232 52.7243 29.1627 52.287 29.024C51.8497 28.8853 51.4923 28.6933 51.215 28.448L52.127 26.672C52.319 26.8427 52.5377 26.976 52.783 27.072C53.039 27.168 53.2897 27.216 53.535 27.216C53.8763 27.216 54.1537 27.1307 54.367 26.96C54.5803 26.8 54.7723 26.528 54.943 26.144L54.975 26.064L51.247 17.392H53.823L56.239 23.232L58.671 17.392H61.071ZM67.1775 17.264C67.9775 17.264 68.7028 17.4507 69.3535 17.824C70.0148 18.1867 70.5322 18.704 70.9055 19.376C71.2788 20.0373 71.4655 20.8107 71.4655 21.696C71.4655 22.5813 71.2788 23.36 70.9055 24.032C70.5322 24.6933 70.0148 25.2107 69.3535 25.584C68.7028 25.9467 67.9775 26.128 67.1775 26.128C66.0788 26.128 65.2148 25.7813 64.5855 25.088V29.104H62.0895V17.392H64.4735V18.384C65.0922 17.6373 65.9935 17.264 67.1775 17.264ZM66.7455 24.08C67.3855 24.08 67.9082 23.8667 68.3135 23.44C68.7295 23.0027 68.9375 22.4213 68.9375 21.696C68.9375 20.9707 68.7295 20.3947 68.3135 19.968C67.9082 19.5307 67.3855 19.312 66.7455 19.312C66.1055 19.312 65.5775 19.5307 65.1615 19.968C64.7562 20.3947 64.5535 20.9707 64.5535 21.696C64.5535 22.4213 64.7562 23.0027 65.1615 23.44C65.5775 23.8667 66.1055 24.08 66.7455 24.08ZM81.5684 21.728C81.5684 21.76 81.5524 21.984 81.5204 22.4H75.0084C75.1257 22.9333 75.403 23.3547 75.8404 23.664C76.2777 23.9733 76.8217 24.128 77.4724 24.128C77.9204 24.128 78.315 24.064 78.6564 23.936C79.0084 23.7973 79.3337 23.584 79.6324 23.296L80.9604 24.736C80.1497 25.664 78.9657 26.128 77.4084 26.128C76.4377 26.128 75.579 25.9413 74.8324 25.568C74.0857 25.184 73.5097 24.656 73.1044 23.984C72.699 23.312 72.4964 22.5493 72.4964 21.696C72.4964 20.8533 72.6937 20.096 73.0884 19.424C73.4937 18.7413 74.043 18.2133 74.7364 17.84C75.4404 17.456 76.2244 17.264 77.0884 17.264C77.931 17.264 78.6937 17.4453 79.3764 17.808C80.059 18.1707 80.5924 18.6933 80.9764 19.376C81.371 20.048 81.5684 20.832 81.5684 21.728ZM77.1044 19.152C76.539 19.152 76.0644 19.312 75.6804 19.632C75.2964 19.952 75.0617 20.3893 74.9764 20.944H79.2164C79.131 20.4 78.8964 19.968 78.5124 19.648C78.1284 19.3173 77.659 19.152 77.1044 19.152ZM87.0861 26.192C86.2008 26.192 85.3421 26.0747 84.5101 25.84C83.6888 25.5947 83.0275 25.28 82.5261 24.896L83.4061 22.944C83.8861 23.296 84.4568 23.5787 85.1181 23.792C85.7795 24.0053 86.4408 24.112 87.1021 24.112C87.8381 24.112 88.3821 24.0053 88.7341 23.792C89.0861 23.568 89.2621 23.2747 89.2621 22.912C89.2621 22.6453 89.1555 22.4267 88.9421 22.256C88.7395 22.0747 88.4728 21.9307 88.1421 21.824C87.8221 21.7173 87.3848 21.6 86.8301 21.472C85.9768 21.2693 85.2781 21.0667 84.7341 20.864C84.1901 20.6613 83.7208 20.336 83.3261 19.888C82.9421 19.44 82.7501 18.8427 82.7501 18.096C82.7501 17.4453 82.9261 16.8587 83.2781 16.336C83.6301 15.8027 84.1581 15.3813 84.8621 15.072C85.5768 14.7627 86.4461 14.608 87.4701 14.608C88.1848 14.608 88.8835 14.6933 89.5661 14.864C90.2488 15.0347 90.8461 15.28 91.3581 15.6L90.5581 17.568C89.5235 16.9813 88.4888 16.688 87.4541 16.688C86.7288 16.688 86.1901 16.8053 85.8381 17.04C85.4968 17.2747 85.3261 17.584 85.3261 17.968C85.3261 18.352 85.5235 18.64 85.9181 18.832C86.3235 19.0133 86.9368 19.1947 87.7581 19.376C88.6115 19.5787 89.3101 19.7813 89.8541 19.984C90.3981 20.1867 90.8621 20.5067 91.2461 20.944C91.6408 21.3813 91.8381 21.9733 91.8381 22.72C91.8381 23.36 91.6568 23.9467 91.2941 24.48C90.9421 25.0027 90.4088 25.4187 89.6941 25.728C88.9795 26.0373 88.1101 26.192 87.0861 26.192ZM97.5933 26.128C96.6759 26.128 95.8493 25.9413 95.1133 25.568C94.3879 25.184 93.8173 24.656 93.4013 23.984C92.9959 23.312 92.7933 22.5493 92.7933 21.696C92.7933 20.8427 92.9959 20.08 93.4013 19.408C93.8173 18.736 94.3879 18.2133 95.1133 17.84C95.8493 17.456 96.6759 17.264 97.5933 17.264C98.4999 17.264 99.2893 17.456 99.9613 17.84C100.644 18.2133 101.14 18.752 101.449 19.456L99.5133 20.496C99.0653 19.7067 98.4199 19.312 97.5773 19.312C96.9266 19.312 96.3879 19.5253 95.9613 19.952C95.5346 20.3787 95.3213 20.96 95.3213 21.696C95.3213 22.432 95.5346 23.0133 95.9613 23.44C96.3879 23.8667 96.9266 24.08 97.5773 24.08C98.4306 24.08 99.0759 23.6853 99.5133 22.896L101.449 23.952C101.14 24.6347 100.644 25.168 99.9613 25.552C99.2893 25.936 98.4999 26.128 97.5933 26.128ZM105.27 18.528C105.569 18.112 105.969 17.7973 106.47 17.584C106.982 17.3707 107.569 17.264 108.23 17.264V19.568C107.953 19.5467 107.766 19.536 107.67 19.536C106.956 19.536 106.396 19.7387 105.99 20.144C105.585 20.5387 105.382 21.136 105.382 21.936V26H102.886V17.392H105.27V18.528ZM109.715 17.392H112.211V26H109.715V17.392ZM110.963 16.192C110.504 16.192 110.131 16.0587 109.843 15.792C109.555 15.5253 109.411 15.1947 109.411 14.8C109.411 14.4053 109.555 14.0747 109.843 13.808C110.131 13.5413 110.504 13.408 110.963 13.408C111.421 13.408 111.795 13.536 112.083 13.792C112.371 14.048 112.515 14.368 112.515 14.752C112.515 15.168 112.371 15.5147 112.083 15.792C111.795 16.0587 111.421 16.192 110.963 16.192ZM119.615 17.264C120.415 17.264 121.14 17.4507 121.791 17.824C122.452 18.1867 122.97 18.704 123.343 19.376C123.716 20.0373 123.903 20.8107 123.903 21.696C123.903 22.5813 123.716 23.36 123.343 24.032C122.97 24.6933 122.452 25.2107 121.791 25.584C121.14 25.9467 120.415 26.128 119.615 26.128C118.516 26.128 117.652 25.7813 117.023 25.088V29.104H114.527V17.392H116.911V18.384C117.53 17.6373 118.431 17.264 119.615 17.264ZM119.183 24.08C119.823 24.08 120.346 23.8667 120.751 23.44C121.167 23.0027 121.375 22.4213 121.375 21.696C121.375 20.9707 121.167 20.3947 120.751 19.968C120.346 19.5307 119.823 19.312 119.183 19.312C118.543 19.312 118.015 19.5307 117.599 19.968C117.194 20.3947 116.991 20.9707 116.991 21.696C116.991 22.4213 117.194 23.0027 117.599 23.44C118.015 23.8667 118.543 24.08 119.183 24.08ZM131.126 25.584C130.881 25.7653 130.577 25.904 130.214 26C129.862 26.0853 129.489 26.128 129.094 26.128C128.07 26.128 127.275 25.8667 126.71 25.344C126.155 24.8213 125.878 24.0533 125.878 23.04V19.504H124.55V17.584H125.878V15.488H128.374V17.584H130.518V19.504H128.374V23.008C128.374 23.3707 128.465 23.6533 128.646 23.856C128.838 24.048 129.105 24.144 129.446 24.144C129.841 24.144 130.177 24.0373 130.454 23.824L131.126 25.584Z" fill="white"/>
</svg>
